<?xml version="1.0" encoding="UTF-8"?>
<!DOCTYPE svg PUBLIC "-//W3C//DTD SVG 1.1//EN" "http://www.w3.org/Graphics/SVG/1.1/DTD/svg11.dtd">
<svg xmlns="http://www.w3.org/2000/svg" version="1.1" width="440px" height="440px" style="shape-rendering:geometricPrecision; text-rendering:geometricPrecision; image-rendering:optimizeQuality; fill-rule:evenodd; clip-rule:evenodd" xmlns:xlink="http://www.w3.org/1999/xlink">
<g><path style="opacity:0.991" fill="#01e2b7" d="M 202.5,-0.5 C 205.833,-0.5 209.167,-0.5 212.5,-0.5C 212.5,3.83333 212.5,8.16667 212.5,12.5C 207.833,13.1667 203.167,13.8333 198.5,14.5C 193.564,15.5384 188.564,16.2051 183.5,16.5C 184.383,11.8969 184.717,7.23027 184.5,2.5C 190.561,1.25947 196.561,0.259467 202.5,-0.5 Z"/></g>
<g><path style="opacity:0.995" fill="#00e4be" d="M 212.5,-0.5 C 220.5,-0.5 228.5,-0.5 236.5,-0.5C 237.568,0.434475 238.901,0.767809 240.5,0.5C 240.5,4.5 240.5,8.5 240.5,12.5C 231.167,12.5 221.833,12.5 212.5,12.5C 212.5,8.16667 212.5,3.83333 212.5,-0.5 Z"/></g>
<g><path style="opacity:0.991" fill="#06dbbd" d="M 240.5,0.5 C 250.468,1.15846 260.135,2.82513 269.5,5.5C 268.517,9.29841 268.183,13.2984 268.5,17.5C 266.833,17.5 265.167,17.5 263.5,17.5C 262.5,17.5 261.5,17.5 260.5,17.5C 255.227,16.3992 249.894,15.7325 244.5,15.5C 243.833,15.5 243.167,15.5 242.5,15.5C 228.01,14.504 213.343,14.1707 198.5,14.5C 203.167,13.8333 207.833,13.1667 212.5,12.5C 221.833,12.5 231.167,12.5 240.5,12.5C 240.5,8.5 240.5,4.5 240.5,0.5 Z"/></g>
<g><path style="opacity:0.991" fill="#03e3b0" d="M 184.5,2.5 C 184.717,7.23027 184.383,11.8969 183.5,16.5C 176.979,17.7988 170.646,19.4654 164.5,21.5C 162.901,21.2322 161.568,21.5655 160.5,22.5C 156.33,24.2222 151.997,25.5555 147.5,26.5C 148.67,24.7215 150.336,23.7215 152.5,23.5C 152.5,18.8333 152.5,14.1667 152.5,9.5C 162.937,6.14588 173.603,3.81255 184.5,2.5 Z"/></g>
<g><path style="opacity:0.986" fill="#02e1c9" d="M 269.5,5.5 C 280.128,7.48719 290.461,10.4872 300.5,14.5C 300.5,18.8333 300.5,23.1667 300.5,27.5C 297.833,27.1667 295.167,26.8333 292.5,26.5C 288.784,24.5947 284.784,23.2613 280.5,22.5C 278.901,22.7678 277.568,22.4345 276.5,21.5C 272.208,20.0107 267.875,18.6774 263.5,17.5C 265.167,17.5 266.833,17.5 268.5,17.5C 268.183,13.2984 268.517,9.29841 269.5,5.5 Z"/></g>
<g><path style="opacity:0.987" fill="#04e2aa" d="M 152.5,9.5 C 152.5,14.1667 152.5,18.8333 152.5,23.5C 150.336,23.7215 148.67,24.7215 147.5,26.5C 146.5,27.1667 145.5,27.8333 144.5,28.5C 140.873,29.3208 137.54,30.6541 134.5,32.5C 131.379,32.7361 129.046,34.0695 127.5,36.5C 126.833,36.5 126.167,36.5 125.5,36.5C 123.973,36.427 122.973,37.0937 122.5,38.5C 121.18,39.9418 119.514,40.6085 117.5,40.5C 119.278,38.6684 121.278,37.0018 123.5,35.5C 124.812,30.6819 124.812,26.0152 123.5,21.5C 132.73,16.7269 142.397,12.7269 152.5,9.5 Z"/></g>
<g><path style="opacity:0.994" fill="#05dfce" d="M 300.5,14.5 C 310.345,18.221 319.679,22.8877 328.5,28.5C 329.103,33.6186 328.436,38.2853 326.5,42.5C 322.167,40.5 317.833,38.5 313.5,36.5C 313.027,35.0937 312.027,34.427 310.5,34.5C 310.027,33.0937 309.027,32.427 307.5,32.5C 305.883,31.962 304.216,31.6287 302.5,31.5C 299.167,29.8333 295.833,28.1667 292.5,26.5C 295.167,26.8333 297.833,27.1667 300.5,27.5C 300.5,23.1667 300.5,18.8333 300.5,14.5 Z"/></g>
<g><path style="opacity:1" fill="#323333" d="M 242.5,15.5 C 243.167,15.5 243.833,15.5 244.5,15.5C 244.918,16.2216 245.584,16.7216 246.5,17C 251.137,17.8294 255.804,18.3294 260.5,18.5C 265.733,19.9077 271.067,20.9077 276.5,21.5C 277.568,22.4345 278.901,22.7678 280.5,22.5C 284.085,24.8061 288.085,26.1394 292.5,26.5C 295.833,28.1667 299.167,29.8333 302.5,31.5C 304.181,33.0075 306.181,34.0075 308.5,34.5C 309.167,34.5 309.833,34.5 310.5,34.5C 310.973,35.9063 311.973,36.573 313.5,36.5C 317.833,38.5 322.167,40.5 326.5,42.5C 334.81,48.468 343.143,54.468 351.5,60.5C 352.585,62.5869 354.251,63.9202 356.5,64.5C 357.833,66.5 359.5,68.1667 361.5,69.5C 362.167,72.1667 363.833,73.8333 366.5,74.5C 366.833,77.5 368.5,79.1667 371.5,79.5C 371.427,81.0269 372.094,82.0269 373.5,82.5C 375.094,85.7642 377.427,88.4309 380.5,90.5C 381.08,92.7488 382.413,94.4154 384.5,95.5C 384.738,97.4044 385.738,98.7377 387.5,99.5C 387.561,103.071 389.227,105.404 392.5,106.5C 393.338,106.842 393.672,107.508 393.5,108.5C 393.427,110.027 394.094,111.027 395.5,111.5C 397.584,115.336 399.917,119.003 402.5,122.5C 402.502,126.165 403.835,129.165 406.5,131.5C 406.752,135.327 408.085,138.66 410.5,141.5C 411.674,142.514 412.34,143.847 412.5,145.5C 414.129,151.392 416.129,157.059 418.5,162.5C 419.15,164.435 419.483,166.435 419.5,168.5C 419.41,171.152 420.076,173.485 421.5,175.5C 421.5,176.167 421.5,176.833 421.5,177.5C 421.492,184.124 422.492,190.457 424.5,196.5C 424.5,197.167 424.5,197.833 424.5,198.5C 424.675,214.182 424.342,229.849 423.5,245.5C 423.5,248.167 423.5,250.833 423.5,253.5C 423.5,253.833 423.5,254.167 423.5,254.5C 422.419,257.627 421.753,260.96 421.5,264.5C 421.5,265.167 421.5,265.833 421.5,266.5C 420.463,267.93 419.796,269.597 419.5,271.5C 416.987,275.378 415.654,279.711 415.5,284.5C 415.5,284.833 415.5,285.167 415.5,285.5C 414.129,287.936 413.129,290.603 412.5,293.5C 412.167,294.833 411.833,296.167 411.5,297.5C 409.935,299.509 408.935,301.843 408.5,304.5C 407.094,304.973 406.427,305.973 406.5,307.5C 405.5,310.167 404.5,312.833 403.5,315.5C 400.862,317.418 399.195,320.085 398.5,323.5C 396.412,325.336 395.079,327.669 394.5,330.5C 392.738,331.262 391.738,332.596 391.5,334.5C 390.094,334.973 389.427,335.973 389.5,337.5C 388.094,337.973 387.427,338.973 387.5,340.5C 385.738,341.262 384.738,342.596 384.5,344.5C 383.094,344.973 382.427,345.973 382.5,347.5C 381.5,347.833 380.833,348.5 380.5,349.5C 378.413,350.585 377.08,352.251 376.5,354.5C 373.757,356.239 371.757,358.573 370.5,361.5C 369.167,362.167 368.167,363.167 367.5,364.5C 362.226,368.105 357.559,372.438 353.5,377.5C 349.949,379.111 346.949,381.444 344.5,384.5C 342.596,384.738 341.262,385.738 340.5,387.5C 338.147,388.34 336.147,389.674 334.5,391.5C 332.973,391.427 331.973,392.094 331.5,393.5C 330.508,393.328 329.842,393.662 329.5,394.5C 327.326,394.75 325.659,395.75 324.5,397.5C 322.326,397.75 320.659,398.75 319.5,400.5C 316.24,401.774 313.24,403.44 310.5,405.5C 307.519,405.182 305.185,406.182 303.5,408.5C 301.302,408.12 299.635,408.787 298.5,410.5C 297.508,410.328 296.842,410.662 296.5,411.5C 294.167,412.167 291.833,412.833 289.5,413.5C 286.603,414.129 283.936,415.129 281.5,416.5C 276.289,417.469 271.289,418.803 266.5,420.5C 264.265,420.205 262.265,420.539 260.5,421.5C 253.41,423.308 246.076,424.474 238.5,425C 225.455,425.796 212.455,425.629 199.5,424.5C 193.089,422.656 186.422,421.656 179.5,421.5C 175.015,420.216 170.349,419.216 165.5,418.5C 158.595,414.863 151.262,412.196 143.5,410.5C 143.167,410.5 142.833,410.5 142.5,410.5C 141.365,408.787 139.698,408.12 137.5,408.5C 137.027,407.094 136.027,406.427 134.5,406.5C 130.71,405.105 127.043,403.438 123.5,401.5C 120.304,400.071 117.304,398.405 114.5,396.5C 114.027,395.094 113.027,394.427 111.5,394.5C 111.027,393.094 110.027,392.427 108.5,392.5C 108.027,391.094 107.027,390.427 105.5,390.5C 102.883,389.214 100.55,387.547 98.5,385.5C 97.7377,383.738 96.4044,382.738 94.5,382.5C 93.7377,380.738 92.4044,379.738 90.5,379.5C 88.8333,378.5 87.5,377.167 86.5,375.5C 84.4309,372.427 81.7642,370.094 78.5,368.5C 74.5,364.833 70.5,361.167 66.5,357.5C 65.9202,355.251 64.5869,353.585 62.5,352.5C 61.2993,350.091 59.6326,348.091 57.5,346.5C 56.9202,344.251 55.5869,342.585 53.5,341.5C 50.8256,337.162 48.1589,332.828 45.5,328.5C 45.573,326.973 44.9063,325.973 43.5,325.5C 41.1633,321.492 38.83,317.492 36.5,313.5C 35.4031,310.314 34.0697,307.314 32.5,304.5C 32.0652,301.843 31.0652,299.509 29.5,297.5C 29.5674,296.041 29.2341,294.708 28.5,293.5C 28.8799,291.302 28.2132,289.635 26.5,288.5C 26.554,285.008 25.554,282.008 23.5,279.5C 23.5,279.167 23.5,278.833 23.5,278.5C 22.4438,271.83 21.2771,265.163 20,258.5C 19.6174,257.944 19.1174,257.611 18.5,257.5C 17.6314,255.283 17.298,252.95 17.5,250.5C 15.7406,232.89 15.0739,215.223 15.5,197.5C 17.3878,195.012 18.0545,192.012 17.5,188.5C 17.5,187.833 17.5,187.167 17.5,186.5C 18.1174,186.389 18.6174,186.056 19,185.5C 19.498,182.518 19.6646,179.518 19.5,176.5C 19.5,175.167 19.5,173.833 19.5,172.5C 20.4582,170.698 21.1249,168.698 21.5,166.5C 21.2627,165.209 21.596,164.209 22.5,163.5C 24.9225,158.835 26.5892,153.835 27.5,148.5C 29.3104,145.855 30.3104,142.855 30.5,139.5C 30.5,139.167 30.5,138.833 30.5,138.5C 31.1667,137.833 31.8333,137.167 32.5,136.5C 34.8337,134.824 35.8337,132.491 35.5,129.5C 37.7705,127.388 39.1039,124.721 39.5,121.5C 40.3764,121.631 41.0431,121.298 41.5,120.5C 43.6703,117.017 45.337,113.35 46.5,109.5C 47.9063,109.027 48.573,108.027 48.5,106.5C 50.8218,105.198 52.1551,103.198 52.5,100.5C 53.9063,100.027 54.573,99.0269 54.5,97.5C 56.5869,96.4154 57.9202,94.7488 58.5,92.5C 68.1392,82.5266 77.8058,72.5266 87.5,62.5C 89.7488,61.9202 91.4154,60.5869 92.5,58.5C 94.4044,58.2624 95.7377,57.2624 96.5,55.5C 96.5,55.1667 96.5,54.8333 96.5,54.5C 97.391,53.8902 98.391,53.5569 99.5,53.5C 101.697,52.1554 104.03,50.9888 106.5,50C 108.063,49.2411 109.063,48.0744 109.5,46.5C 111.027,46.573 112.027,45.9063 112.5,44.5C 114.167,43.1667 115.833,41.8333 117.5,40.5C 119.514,40.6085 121.18,39.9418 122.5,38.5C 124.027,38.573 125.027,37.9063 125.5,36.5C 126.167,36.5 126.833,36.5 127.5,36.5C 130.331,35.9213 132.664,34.588 134.5,32.5C 137.54,30.6541 140.873,29.3208 144.5,28.5C 149.453,27.6837 154.286,26.3503 159,24.5C 160.03,24.1639 160.53,23.4972 160.5,22.5C 161.568,21.5655 162.901,21.2322 164.5,21.5C 175.517,19.8638 186.517,18.0304 197.5,16C 212.496,15.5001 227.496,15.3334 242.5,15.5 Z"/></g>
<g><path style="opacity:1" fill="#2c514c" d="M 244.5,15.5 C 249.894,15.7325 255.227,16.3992 260.5,17.5C 260.5,17.8333 260.5,18.1667 260.5,18.5C 255.804,18.3294 251.137,17.8294 246.5,17C 245.584,16.7216 244.918,16.2216 244.5,15.5 Z"/></g>
<g><path style="opacity:1" fill="#286b62" d="M 260.5,18.5 C 260.5,18.1667 260.5,17.8333 260.5,17.5C 261.5,17.5 262.5,17.5 263.5,17.5C 267.875,18.6774 272.208,20.0107 276.5,21.5C 271.067,20.9077 265.733,19.9077 260.5,18.5 Z"/></g>
<g><path style="opacity:1" fill="#2c584e" d="M 198.5,14.5 C 213.343,14.1707 228.01,14.504 242.5,15.5C 227.496,15.3334 212.496,15.5001 197.5,16C 186.517,18.0304 175.517,19.8638 164.5,21.5C 170.646,19.4654 176.979,17.7988 183.5,16.5C 188.564,16.2051 193.564,15.5384 198.5,14.5 Z"/></g>
<g><path style="opacity:0.993" fill="#03e4a4" d="M 123.5,21.5 C 124.812,26.0152 124.812,30.6819 123.5,35.5C 121.278,37.0018 119.278,38.6684 117.5,40.5C 115.833,41.8333 114.167,43.1667 112.5,44.5C 110.973,44.427 109.973,45.0937 109.5,46.5C 105.108,47.3593 101.775,49.6927 99.5,53.5C 98.391,53.5569 97.391,53.8902 96.5,54.5C 96.5,48.8333 96.5,43.1667 96.5,37.5C 104.667,30.9106 113.667,25.5772 123.5,21.5 Z"/></g>
<g><path style="opacity:1" fill="#25847a" d="M 280.5,22.5 C 284.784,23.2613 288.784,24.5947 292.5,26.5C 288.085,26.1394 284.085,24.8061 280.5,22.5 Z"/></g>
<g><path style="opacity:1" fill="#2e554b" d="M 160.5,22.5 C 160.53,23.4972 160.03,24.1639 159,24.5C 154.286,26.3503 149.453,27.6837 144.5,28.5C 145.5,27.8333 146.5,27.1667 147.5,26.5C 151.997,25.5555 156.33,24.2222 160.5,22.5 Z"/></g>
<g><path style="opacity:0.989" fill="#05ded4" d="M 328.5,28.5 C 338.534,33.8465 347.867,40.1799 356.5,47.5C 356.821,52.6946 356.487,57.6946 355.5,62.5C 354.395,61.3995 353.062,60.7329 351.5,60.5C 343.143,54.468 334.81,48.468 326.5,42.5C 328.436,38.2853 329.103,33.6186 328.5,28.5 Z"/></g>
<g><path style="opacity:1" fill="#2b5551" d="M 302.5,31.5 C 304.216,31.6287 305.883,31.962 307.5,32.5C 307.833,33.1667 308.167,33.8333 308.5,34.5C 306.181,34.0075 304.181,33.0075 302.5,31.5 Z"/></g>
<g><path style="opacity:1" fill="#22938a" d="M 307.5,32.5 C 309.027,32.427 310.027,33.0937 310.5,34.5C 309.833,34.5 309.167,34.5 308.5,34.5C 308.167,33.8333 307.833,33.1667 307.5,32.5 Z"/></g>
<g><path style="opacity:1" fill="#2e6556" d="M 134.5,32.5 C 132.664,34.588 130.331,35.9213 127.5,36.5C 129.046,34.0695 131.379,32.7361 134.5,32.5 Z"/></g>
<g><path style="opacity:1" fill="#286f6a" d="M 310.5,34.5 C 312.027,34.427 313.027,35.0937 313.5,36.5C 311.973,36.573 310.973,35.9063 310.5,34.5 Z"/></g>
<g><path style="opacity:0.991" fill="#03e49f" d="M 96.5,37.5 C 96.5,43.1667 96.5,48.8333 96.5,54.5C 96.5,54.8333 96.5,55.1667 96.5,55.5C 94.5956,55.7376 93.2623,56.7376 92.5,58.5C 90.2512,59.0798 88.5846,60.4131 87.5,62.5C 80.2212,68.4415 73.2212,74.7749 66.5,81.5C 66.2222,79.6536 66.8888,78.3202 68.5,77.5C 69.8166,71.3456 69.8166,65.3456 68.5,59.5C 73.638,54.5324 78.9714,49.6991 84.5,45C 88.388,42.2279 92.388,39.7279 96.5,37.5 Z"/></g>
<g><path style="opacity:1" fill="#2a856c" d="M 125.5,36.5 C 125.027,37.9063 124.027,38.573 122.5,38.5C 122.973,37.0937 123.973,36.427 125.5,36.5 Z"/></g>
<g><path style="opacity:1" fill="#2b6051" d="M 112.5,44.5 C 112.027,45.9063 111.027,46.573 109.5,46.5C 109.973,45.0937 110.973,44.427 112.5,44.5 Z"/></g>
<g><path style="opacity:0.988" fill="#04dfdb" d="M 356.5,47.5 C 366.815,54.8149 375.815,63.4815 383.5,73.5C 383.666,79.1764 383.499,84.8431 383,90.5C 382.329,89.7476 381.496,89.4142 380.5,89.5C 378.5,86.8333 376.167,84.5 373.5,82.5C 373.573,80.9731 372.906,79.9731 371.5,79.5C 370.167,77.5 368.5,75.8333 366.5,74.5C 365.167,72.5 363.5,70.8333 361.5,69.5C 359.5,68.1667 357.833,66.5 356.5,64.5C 356.167,63.8333 355.833,63.1667 355.5,62.5C 356.487,57.6946 356.821,52.6946 356.5,47.5 Z"/></g>
<g><path style="opacity:1" fill="#2e5f50" d="M 109.5,46.5 C 109.063,48.0744 108.063,49.2411 106.5,50C 104.03,50.9888 101.697,52.1554 99.5,53.5C 101.775,49.6927 105.108,47.3593 109.5,46.5 Z"/></g>
<g><path style="opacity:1" fill="#2b6251" d="M 96.5,55.5 C 95.7377,57.2624 94.4044,58.2624 92.5,58.5C 93.2623,56.7376 94.5956,55.7376 96.5,55.5 Z"/></g>
<g><path style="opacity:0.99" fill="#04e598" d="M 68.5,59.5 C 69.8166,65.3456 69.8166,71.3456 68.5,77.5C 66.8888,78.3202 66.2222,79.6536 66.5,81.5C 63.8086,85.1849 61.1419,88.8516 58.5,92.5C 56.4131,93.5846 55.0798,95.2512 54.5,97.5C 53.0937,97.9731 52.427,98.9731 52.5,100.5C 50.6736,102.147 49.3403,104.147 48.5,106.5C 47.0937,106.973 46.427,107.973 46.5,109.5C 43.1611,112.835 40.8278,116.835 39.5,121.5C 37.2295,123.612 35.8961,126.279 35.5,129.5C 33.9348,131.509 32.9348,133.843 32.5,136.5C 31.8333,137.167 31.1667,137.833 30.5,138.5C 31.2244,132.828 33.0577,127.495 36,122.5C 36.4997,114.173 36.6664,105.84 36.5,97.5C 45.3168,83.3436 55.9835,70.677 68.5,59.5 Z"/></g>
<g><path style="opacity:1" fill="#2a6955" d="M 92.5,58.5 C 91.4154,60.5869 89.7488,61.9202 87.5,62.5C 88.5846,60.4131 90.2512,59.0798 92.5,58.5 Z"/></g>
<g><path style="opacity:1" fill="#289894" d="M 351.5,60.5 C 353.062,60.7329 354.395,61.3995 355.5,62.5C 355.833,63.1667 356.167,63.8333 356.5,64.5C 354.251,63.9202 352.585,62.5869 351.5,60.5 Z"/></g>
<g><path style="opacity:1" fill="#2e5e5c" d="M 361.5,69.5 C 363.5,70.8333 365.167,72.5 366.5,74.5C 363.833,73.8333 362.167,72.1667 361.5,69.5 Z"/></g>
<g><path style="opacity:0.991" fill="#04dee1" d="M 383.5,73.5 C 388.434,77.9766 392.934,82.9766 397,88.5C 404.531,98.896 411.031,109.896 416.5,121.5C 416.827,131.015 416.494,140.348 415.5,149.5C 414.857,147.924 413.857,146.59 412.5,145.5C 412.34,143.847 411.674,142.514 410.5,141.5C 410.248,137.673 408.915,134.34 406.5,131.5C 405.925,128.088 404.592,125.088 402.5,122.5C 399.917,119.003 397.584,115.336 395.5,111.5C 395.573,109.973 394.906,108.973 393.5,108.5C 393.672,107.508 393.338,106.842 392.5,106.5C 391.567,103.63 389.9,101.296 387.5,99.5C 387.262,97.5956 386.262,96.2623 384.5,95.5C 383.92,93.2512 382.587,91.5846 380.5,90.5C 380.5,90.1667 380.5,89.8333 380.5,89.5C 381.496,89.4142 382.329,89.7476 383,90.5C 383.499,84.8431 383.666,79.1764 383.5,73.5 Z"/></g>
<g><path style="opacity:1" fill="#305655" d="M 366.5,74.5 C 368.5,75.8333 370.167,77.5 371.5,79.5C 368.5,79.1667 366.833,77.5 366.5,74.5 Z"/></g>
<g><path style="opacity:1" fill="#2d6150" d="M 87.5,62.5 C 77.8058,72.5266 68.1392,82.5266 58.5,92.5C 61.1419,88.8516 63.8086,85.1849 66.5,81.5C 73.2212,74.7749 80.2212,68.4415 87.5,62.5 Z"/></g>
<g><path style="opacity:1" fill="#2f6767" d="M 371.5,79.5 C 372.906,79.9731 373.573,80.9731 373.5,82.5C 372.094,82.0269 371.427,81.0269 371.5,79.5 Z"/></g>
<g><path style="opacity:1" fill="#2f5b5b" d="M 373.5,82.5 C 376.167,84.5 378.5,86.8333 380.5,89.5C 380.5,89.8333 380.5,90.1667 380.5,90.5C 377.427,88.4309 375.094,85.7642 373.5,82.5 Z"/></g>
<g><path style="opacity:1" fill="#2f5c5c" d="M 380.5,90.5 C 382.587,91.5846 383.92,93.2512 384.5,95.5C 382.413,94.4154 381.08,92.7488 380.5,90.5 Z"/></g>
<g><path style="opacity:1" fill="#2b735a" d="M 58.5,92.5 C 57.9202,94.7488 56.5869,96.4154 54.5,97.5C 55.0798,95.2512 56.4131,93.5846 58.5,92.5 Z"/></g>
<g><path style="opacity:1" fill="#2d6464" d="M 384.5,95.5 C 386.262,96.2623 387.262,97.5956 387.5,99.5C 385.738,98.7377 384.738,97.4044 384.5,95.5 Z"/></g>
<g><path style="opacity:0.994" fill="#02e591" d="M 36.5,97.5 C 36.6664,105.84 36.4997,114.173 36,122.5C 33.0577,127.495 31.2244,132.828 30.5,138.5C 30.5,138.833 30.5,139.167 30.5,139.5C 28.5275,142.084 27.5275,145.084 27.5,148.5C 24.8605,153.085 23.1938,158.085 22.5,163.5C 21.596,164.209 21.2627,165.209 21.5,166.5C 19.7202,167.99 19.0535,169.99 19.5,172.5C 19.5,173.833 19.5,175.167 19.5,176.5C 18.4192,179.627 17.7526,182.96 17.5,186.5C 17.5,187.167 17.5,187.833 17.5,188.5C 15.6122,190.988 14.9455,193.988 15.5,197.5C 13.9671,215.074 14.3004,232.741 16.5,250.5C 16.3359,253.187 16.5026,255.854 17,258.5C 17.2784,259.416 17.7784,260.082 18.5,260.5C 18.5,260.833 18.5,261.167 18.5,261.5C 18.1706,264.228 18.8372,266.562 20.5,268.5C 20.5,269.5 20.5,270.5 20.5,271.5C 20.4095,274.152 21.0762,276.485 22.5,278.5C 22.8333,278.5 23.1667,278.5 23.5,278.5C 23.5,278.833 23.5,279.167 23.5,279.5C 24.0541,282.746 25.0541,285.746 26.5,288.5C 26.5,289.167 26.5,289.833 26.5,290.5C 26.1824,293.481 27.1824,295.815 29.5,297.5C 29.1663,300.491 30.1663,302.824 32.5,304.5C 34.0697,307.314 35.4031,310.314 36.5,313.5C 36.5,322.833 36.5,332.167 36.5,341.5C 23.7854,322.735 14.1187,302.402 7.5,280.5C 8.83333,239.833 8.83333,199.167 7.5,158.5C 14.1187,136.598 23.7854,116.265 36.5,97.5 Z"/></g>
<g><path style="opacity:1" fill="#29755b" d="M 54.5,97.5 C 54.573,99.0269 53.9063,100.027 52.5,100.5C 52.427,98.9731 53.0937,97.9731 54.5,97.5 Z"/></g>
<g><path style="opacity:1" fill="#2b6953" d="M 52.5,100.5 C 52.1551,103.198 50.8218,105.198 48.5,106.5C 49.3403,104.147 50.6736,102.147 52.5,100.5 Z"/></g>
<g><path style="opacity:1" fill="#315858" d="M 387.5,99.5 C 389.9,101.296 391.567,103.63 392.5,106.5C 389.227,105.404 387.561,103.071 387.5,99.5 Z"/></g>
<g><path style="opacity:1" fill="#2a6f57" d="M 48.5,106.5 C 48.573,108.027 47.9063,109.027 46.5,109.5C 46.427,107.973 47.0937,106.973 48.5,106.5 Z"/></g>
<g><path style="opacity:1" fill="#2c6566" d="M 393.5,108.5 C 394.906,108.973 395.573,109.973 395.5,111.5C 394.094,111.027 393.427,110.027 393.5,108.5 Z"/></g>
<g><path style="opacity:1" fill="#27a496" d="M 254.5,113.5 C 254.5,113.167 254.5,112.833 254.5,112.5C 266.833,112.5 279.167,112.5 291.5,112.5C 291.5,142.5 291.5,172.5 291.5,202.5C 290.502,175.338 290.169,148.005 290.5,120.5C 290.5,118.167 290.5,115.833 290.5,113.5C 279.833,113.5 269.167,113.5 258.5,113.5C 257.167,113.5 255.833,113.5 254.5,113.5 Z"/></g>
<g><path style="opacity:1" fill="#02e1c4" d="M 254.5,113.5 C 255.833,113.5 257.167,113.5 258.5,113.5C 261.625,114.479 264.958,114.813 268.5,114.5C 268.5,189.833 268.5,265.167 268.5,340.5C 264.167,340.5 259.833,340.5 255.5,340.5C 255.832,306.663 255.498,272.996 254.5,239.5C 236.5,239.5 218.5,239.5 200.5,239.5C 204.298,238.517 208.298,238.183 212.5,238.5C 221.833,238.5 231.167,238.5 240.5,238.5C 240.5,227.833 240.5,217.167 240.5,206.5C 231.167,206.5 221.833,206.5 212.5,206.5C 206.167,206.5 199.833,206.5 193.5,206.5C 213.833,205.833 234.167,205.167 254.5,204.5C 254.5,174.167 254.5,143.833 254.5,113.5 Z"/></g>
<g><path style="opacity:1" fill="#04dfac" d="M 125.5,113.5 C 137.167,113.5 148.833,113.5 160.5,113.5C 160.168,147.337 160.502,181.004 161.5,214.5C 162.5,214.5 163.5,214.5 164.5,214.5C 171.318,212.798 177.984,210.798 184.5,208.5C 184.179,220.081 184.512,231.581 185.5,243C 182.826,243.67 180.493,244.837 178.5,246.5C 178.5,246.833 178.5,247.167 178.5,247.5C 176.973,247.427 175.973,248.094 175.5,249.5C 171.167,251.833 167.833,255.167 165.5,259.5C 163.787,260.635 163.12,262.302 163.5,264.5C 163.167,264.5 162.833,264.5 162.5,264.5C 161.883,264.611 161.383,264.944 161,265.5C 160.5,290.831 160.333,316.164 160.5,341.5C 148.833,341.5 137.167,341.5 125.5,341.5C 125.167,341.5 124.833,341.5 124.5,341.5C 124.167,265.332 124.501,189.332 125.5,113.5 Z"/></g>
<g><path style="opacity:1" fill="#00e5ab" d="M 125.5,114.5 C 134.5,114.5 143.5,114.5 152.5,114.5C 152.5,189.833 152.5,265.167 152.5,340.5C 143.5,340.5 134.5,340.5 125.5,340.5C 125.5,265.167 125.5,189.833 125.5,114.5 Z"/></g>
<g><path style="opacity:1" fill="#00e2ca" d="M 258.5,113.5 C 269.167,113.5 279.833,113.5 290.5,113.5C 290.5,115.833 290.5,118.167 290.5,120.5C 289.336,147.997 289.17,175.664 290,203.5C 292.016,205.608 294.183,205.942 296.5,204.5C 298.199,204.34 299.866,204.506 301.5,205C 300.513,215.752 300.18,226.585 300.5,237.5C 296.988,236.945 293.988,237.612 291.5,239.5C 290.883,239.611 290.383,239.944 290,240.5C 289.169,272.336 289.336,304.003 290.5,335.5C 290.5,337.167 290.5,338.833 290.5,340.5C 283.167,340.5 275.833,340.5 268.5,340.5C 268.5,265.167 268.5,189.833 268.5,114.5C 264.958,114.813 261.625,114.479 258.5,113.5 Z"/></g>
<g><path style="opacity:1" fill="#2e5b4a" d="M 46.5,109.5 C 45.337,113.35 43.6703,117.017 41.5,120.5C 41.0431,121.298 40.3764,121.631 39.5,121.5C 40.8278,116.835 43.1611,112.835 46.5,109.5 Z"/></g>
<g><path style="opacity:0.994" fill="#01dfe8" d="M 416.5,121.5 C 429.3,147.03 436.966,174.03 439.5,202.5C 439.5,213.833 439.5,225.167 439.5,236.5C 436.966,264.97 429.3,291.97 416.5,317.5C 416.827,307.985 416.494,298.652 415.5,289.5C 415.5,288.167 415.5,286.833 415.5,285.5C 415.5,285.167 415.5,284.833 415.5,284.5C 417.209,281.045 418.542,277.379 419.5,273.5C 420.924,271.485 421.59,269.152 421.5,266.5C 421.5,265.833 421.5,265.167 421.5,264.5C 422.222,264.082 422.722,263.416 423,262.5C 423.497,259.854 423.664,257.187 423.5,254.5C 423.5,254.167 423.5,253.833 423.5,253.5C 424.972,249.081 425.638,244.414 425.5,239.5C 425.5,238.5 425.5,237.5 425.5,236.5C 426.66,223.673 426.827,210.673 426,197.5C 425.79,195.942 425.29,194.609 424.5,193.5C 424.129,187.924 423.129,182.591 421.5,177.5C 421.5,176.833 421.5,176.167 421.5,175.5C 421.59,172.848 420.924,170.515 419.5,168.5C 419.483,166.435 419.15,164.435 418.5,162.5C 417.707,158.12 416.707,153.786 415.5,149.5C 416.494,140.348 416.827,131.015 416.5,121.5 Z"/></g>
<g><path style="opacity:1" fill="#2d634f" d="M 39.5,121.5 C 39.1039,124.721 37.7705,127.388 35.5,129.5C 35.8961,126.279 37.2295,123.612 39.5,121.5 Z"/></g>
<g><path style="opacity:1" fill="#2e6c6d" d="M 402.5,122.5 C 404.592,125.088 405.925,128.088 406.5,131.5C 403.835,129.165 402.502,126.165 402.5,122.5 Z"/></g>
<g><path style="opacity:1" fill="#2e4f42" d="M 35.5,129.5 C 35.8337,132.491 34.8337,134.824 32.5,136.5C 32.9348,133.843 33.9348,131.509 35.5,129.5 Z"/></g>
<g><path style="opacity:1" fill="#2b5047" d="M 161.5,112.5 C 162.498,145.662 162.832,178.996 162.5,212.5C 163.5,212.5 164.5,212.5 165.5,212.5C 165.167,213.167 164.833,213.833 164.5,214.5C 163.5,214.5 162.5,214.5 161.5,214.5C 161.5,180.5 161.5,146.5 161.5,112.5 Z"/></g>
<g><path style="opacity:1" fill="#305c5d" d="M 406.5,131.5 C 408.915,134.34 410.248,137.673 410.5,141.5C 408.085,138.66 406.752,135.327 406.5,131.5 Z"/></g>
<g><path style="opacity:1" fill="#1da888" d="M 125.5,113.5 C 136.988,112.505 148.655,112.172 160.5,112.5C 160.833,112.5 161.167,112.5 161.5,112.5C 161.5,146.5 161.5,180.5 161.5,214.5C 160.502,181.004 160.168,147.337 160.5,113.5C 148.833,113.5 137.167,113.5 125.5,113.5 Z"/></g>
<g><path style="opacity:1" fill="#18cebc" d="M 290.5,120.5 C 290.169,148.005 290.502,175.338 291.5,202.5C 292.919,203.451 294.585,203.784 296.5,203.5C 296.5,203.833 296.5,204.167 296.5,204.5C 294.183,205.942 292.016,205.608 290,203.5C 289.17,175.664 289.336,147.997 290.5,120.5 Z"/></g>
<g><path style="opacity:1" fill="#297257" d="M 30.5,139.5 C 30.3104,142.855 29.3104,145.855 27.5,148.5C 27.5275,145.084 28.5275,142.084 30.5,139.5 Z"/></g>
<g><path style="opacity:1" fill="#288c8e" d="M 412.5,145.5 C 413.857,146.59 414.857,147.924 415.5,149.5C 416.707,153.786 417.707,158.12 418.5,162.5C 416.129,157.059 414.129,151.392 412.5,145.5 Z"/></g>
<g><path style="opacity:1" fill="#2a5f4b" d="M 27.5,148.5 C 26.5892,153.835 24.9225,158.835 22.5,163.5C 23.1938,158.085 24.8605,153.085 27.5,148.5 Z"/></g>
<g><path style="opacity:0.99" fill="#00e78e" d="M 7.5,158.5 C 8.83333,199.167 8.83333,239.833 7.5,280.5C 3.79917,265.894 1.1325,251.227 -0.5,236.5C -0.5,225.167 -0.5,213.833 -0.5,202.5C 1.1325,187.773 3.79917,173.106 7.5,158.5 Z"/></g>
<g><path style="opacity:1" fill="#1dae78" d="M 21.5,166.5 C 21.1249,168.698 20.4582,170.698 19.5,172.5C 19.0535,169.99 19.7202,167.99 21.5,166.5 Z"/></g>
<g><path style="opacity:1" fill="#2b6364" d="M 419.5,168.5 C 420.924,170.515 421.59,172.848 421.5,175.5C 420.076,173.485 419.41,171.152 419.5,168.5 Z"/></g>
<g><path style="opacity:1" fill="#28584b" d="M 160.5,112.5 C 148.655,112.172 136.988,112.505 125.5,113.5C 124.501,189.332 124.167,265.332 124.5,341.5C 123.334,265.334 123.168,189.001 124,112.5C 136.265,111.17 148.431,111.17 160.5,112.5 Z"/></g>
<g><path style="opacity:1" fill="#2d4f42" d="M 19.5,176.5 C 19.6646,179.518 19.498,182.518 19,185.5C 18.6174,186.056 18.1174,186.389 17.5,186.5C 17.7526,182.96 18.4192,179.627 19.5,176.5 Z"/></g>
<g><path style="opacity:1" fill="#2e5152" d="M 421.5,177.5 C 423.129,182.591 424.129,187.924 424.5,193.5C 424.5,194.5 424.5,195.5 424.5,196.5C 422.492,190.457 421.492,184.124 421.5,177.5 Z"/></g>
<g><path style="opacity:1" fill="#04dfd5" d="M 335.5,183.5 C 336.833,183.5 338.167,183.5 339.5,183.5C 339.953,184.458 340.619,185.292 341.5,186C 346.963,187.651 352.296,189.484 357.5,191.5C 361.203,192.905 364.87,194.239 368.5,195.5C 368.5,196.833 368.5,198.167 368.5,199.5C 365.658,201.844 363.825,204.844 363,208.5C 359.99,211.343 357.157,214.343 354.5,217.5C 353.5,217.833 352.833,218.5 352.5,219.5C 350.973,219.427 349.973,220.094 349.5,221.5C 347.973,221.427 346.973,222.094 346.5,223.5C 343.787,225.172 341.12,226.838 338.5,228.5C 334.167,230.5 329.833,232.5 325.5,234.5C 322.167,235.167 318.833,235.833 315.5,236.5C 319.703,234.598 323.87,232.598 328,230.5C 328.167,224.5 328.333,218.5 328.5,212.5C 328.496,206.128 327.829,200.128 326.5,194.5C 330.598,191.735 333.598,188.068 335.5,183.5 Z"/></g>
<g><path style="opacity:1" fill="#289692" d="M 339.5,183.5 C 345.936,185.083 351.936,187.416 357.5,190.5C 357.5,190.833 357.5,191.167 357.5,191.5C 352.296,189.484 346.963,187.651 341.5,186C 340.619,185.292 339.953,184.458 339.5,183.5 Z"/></g>
<g><path style="opacity:1" fill="#28918b" d="M 335.5,183.5 C 333.598,188.068 330.598,191.735 326.5,194.5C 325.833,194.5 325.167,194.5 324.5,194.5C 328.5,191.167 332.167,187.5 335.5,183.5 Z"/></g>
<g><path style="opacity:1" fill="#2e5f58" d="M 254.5,112.5 C 254.5,112.833 254.5,113.167 254.5,113.5C 254.5,143.833 254.5,174.167 254.5,204.5C 233.833,204.5 213.167,204.5 192.5,204.5C 212.66,203.503 232.993,203.17 253.5,203.5C 253.169,172.995 253.502,142.662 254.5,112.5 Z"/></g>
<g><path style="opacity:1" fill="#335554" d="M 357.5,191.5 C 357.5,191.167 357.5,190.833 357.5,190.5C 361.89,190.965 365.557,192.632 368.5,195.5C 364.87,194.239 361.203,192.905 357.5,191.5 Z"/></g>
<g><path style="opacity:1" fill="#04e0cf" d="M 324.5,194.5 C 325.167,194.5 325.833,194.5 326.5,194.5C 327.829,200.128 328.496,206.128 328.5,212.5C 328.333,218.5 328.167,224.5 328,230.5C 323.87,232.598 319.703,234.598 315.5,236.5C 307.777,239.121 299.777,240.121 291.5,239.5C 293.988,237.612 296.988,236.945 300.5,237.5C 300.18,226.585 300.513,215.752 301.5,205C 299.866,204.506 298.199,204.34 296.5,204.5C 296.5,204.167 296.5,203.833 296.5,203.5C 300.846,203.666 305.179,203.499 309.5,203C 310.056,202.617 310.389,202.117 310.5,201.5C 313.152,201.59 315.485,200.924 317.5,199.5C 317.973,198.094 318.973,197.427 320.5,197.5C 322.404,197.262 323.738,196.262 324.5,194.5 Z"/></g>
<g><path style="opacity:1" fill="#2c634d" d="M 17.5,188.5 C 18.0545,192.012 17.3878,195.012 15.5,197.5C 14.9455,193.988 15.6122,190.988 17.5,188.5 Z"/></g>
<g><path style="opacity:1" fill="#288c86" d="M 324.5,194.5 C 323.738,196.262 322.404,197.262 320.5,197.5C 321.262,195.738 322.596,194.738 324.5,194.5 Z"/></g>
<g><path style="opacity:1" fill="#28a198" d="M 317.5,199.5 C 315.485,200.924 313.152,201.59 310.5,201.5C 312.515,200.076 314.848,199.41 317.5,199.5 Z"/></g>
<g><path style="opacity:1" fill="#24978c" d="M 310.5,201.5 C 310.389,202.117 310.056,202.617 309.5,203C 305.179,203.499 300.846,203.666 296.5,203.5C 301.029,202.727 305.695,202.06 310.5,201.5 Z"/></g>
<g><path style="opacity:1" fill="#2a9886" d="M 192.5,204.5 C 213.167,204.5 233.833,204.5 254.5,204.5C 234.167,205.167 213.833,205.833 193.5,206.5C 192.167,206.5 190.833,206.5 189.5,206.5C 190.29,205.599 191.29,204.932 192.5,204.5 Z"/></g>
<g><path style="opacity:1" fill="#01e3b7" d="M 189.5,206.5 C 190.833,206.5 192.167,206.5 193.5,206.5C 199.833,206.5 206.167,206.5 212.5,206.5C 212.5,217.167 212.5,227.833 212.5,238.5C 208.298,238.183 204.298,238.517 200.5,239.5C 200.167,240.167 199.833,240.833 199.5,241.5C 198.833,241.5 198.167,241.5 197.5,241.5C 194.813,241.336 192.146,241.503 189.5,242C 188.944,242.383 188.611,242.883 188.5,243.5C 187.5,244.167 186.5,244.833 185.5,245.5C 184.833,245.5 184.167,245.5 183.5,245.5C 181.883,246.038 180.216,246.371 178.5,246.5C 180.493,244.837 182.826,243.67 185.5,243C 184.512,231.581 184.179,220.081 184.5,208.5C 186.553,208.598 188.22,207.931 189.5,206.5 Z"/></g>
<g><path style="opacity:1" fill="#00e3be" d="M 212.5,206.5 C 221.833,206.5 231.167,206.5 240.5,206.5C 240.5,217.167 240.5,227.833 240.5,238.5C 231.167,238.5 221.833,238.5 212.5,238.5C 212.5,227.833 212.5,217.167 212.5,206.5 Z"/></g>
<g><path style="opacity:1" fill="#38796b" d="M 179.5,207.5 C 179.027,208.906 178.027,209.573 176.5,209.5C 176.973,208.094 177.973,207.427 179.5,207.5 Z"/></g>
<g><path style="opacity:1" fill="#2c8370" d="M 175.5,209.5 C 174.07,210.537 172.403,211.204 170.5,211.5C 171.635,209.787 173.302,209.12 175.5,209.5 Z"/></g>
<g><path style="opacity:1" fill="#1dc19c" d="M 189.5,206.5 C 188.22,207.931 186.553,208.598 184.5,208.5C 177.984,210.798 171.318,212.798 164.5,214.5C 164.833,213.833 165.167,213.167 165.5,212.5C 167.292,212.634 168.958,212.301 170.5,211.5C 172.403,211.204 174.07,210.537 175.5,209.5C 175.833,209.5 176.167,209.5 176.5,209.5C 178.027,209.573 179.027,208.906 179.5,207.5C 182.86,207.384 186.193,207.051 189.5,206.5 Z"/></g>
<g><path style="opacity:1" fill="#2e4748" d="M 424.5,198.5 C 425.495,210.989 425.829,223.656 425.5,236.5C 425.5,237.5 425.5,238.5 425.5,239.5C 424.833,241.5 424.167,243.5 423.5,245.5C 424.342,229.849 424.675,214.182 424.5,198.5 Z"/></g>
<g><path style="opacity:1" fill="#34706f" d="M 368.5,199.5 C 366.732,202.703 365.232,206.037 364,209.5C 361.259,212.747 358.092,215.414 354.5,217.5C 357.157,214.343 359.99,211.343 363,208.5C 363.825,204.844 365.658,201.844 368.5,199.5 Z"/></g>
<g><path style="opacity:1" fill="#228b8f" d="M 424.5,193.5 C 425.29,194.609 425.79,195.942 426,197.5C 426.827,210.673 426.66,223.673 425.5,236.5C 425.829,223.656 425.495,210.989 424.5,198.5C 424.5,197.833 424.5,197.167 424.5,196.5C 424.5,195.5 424.5,194.5 424.5,193.5 Z"/></g>
<g><path style="opacity:1" fill="#397673" d="M 352.5,219.5 C 352.027,220.906 351.027,221.573 349.5,221.5C 349.973,220.094 350.973,219.427 352.5,219.5 Z"/></g>
<g><path style="opacity:1" fill="#387e7b" d="M 349.5,221.5 C 349.027,222.906 348.027,223.573 346.5,223.5C 346.973,222.094 347.973,221.427 349.5,221.5 Z"/></g>
<g><path style="opacity:1" fill="#357774" d="M 346.5,223.5 C 344.797,226.632 342.13,228.299 338.5,228.5C 341.12,226.838 343.787,225.172 346.5,223.5 Z"/></g>
<g><path style="opacity:1" fill="#3d867a" d="M 200.5,239.5 C 218.5,239.5 236.5,239.5 254.5,239.5C 254.5,240.167 254.5,240.833 254.5,241.5C 254.167,241.5 253.833,241.5 253.5,241.5C 235.628,240.187 217.628,240.187 199.5,241.5C 199.833,240.833 200.167,240.167 200.5,239.5 Z"/></g>
<g><path style="opacity:1" fill="#396864" d="M 325.5,234.5 C 320.93,236.439 316.264,238.272 311.5,240C 304.842,240.5 298.175,240.666 291.5,240.5C 291.5,240.167 291.5,239.833 291.5,239.5C 299.777,240.121 307.777,239.121 315.5,236.5C 318.833,235.833 322.167,235.167 325.5,234.5 Z"/></g>
<g><path style="opacity:1" fill="#27a088" d="M 197.5,241.5 C 194.655,242.344 191.655,243.01 188.5,243.5C 188.611,242.883 188.944,242.383 189.5,242C 192.146,241.503 194.813,241.336 197.5,241.5 Z"/></g>
<g><path style="opacity:1" fill="#3c4342" d="M 253.5,241.5 C 253.5,241.833 253.5,242.167 253.5,242.5C 235.164,242.333 216.83,242.5 198.5,243C 194.184,243.996 189.851,244.83 185.5,245.5C 186.5,244.833 187.5,244.167 188.5,243.5C 191.655,243.01 194.655,242.344 197.5,241.5C 198.167,241.5 198.833,241.5 199.5,241.5C 217.628,240.187 235.628,240.187 253.5,241.5 Z"/></g>
<g><path style="opacity:1" fill="#257556" d="M 15.5,197.5 C 15.0739,215.223 15.7406,232.89 17.5,250.5C 17.1667,250.5 16.8333,250.5 16.5,250.5C 14.3004,232.741 13.9671,215.074 15.5,197.5 Z"/></g>
<g><path style="opacity:1" fill="#3d7569" d="M 183.5,245.5 C 182.365,247.213 180.698,247.88 178.5,247.5C 178.5,247.167 178.5,246.833 178.5,246.5C 180.216,246.371 181.883,246.038 183.5,245.5 Z"/></g>
<g><path style="opacity:1" fill="#238e92" d="M 425.5,239.5 C 425.638,244.414 424.972,249.081 423.5,253.5C 423.5,250.833 423.5,248.167 423.5,245.5C 424.167,243.5 424.833,241.5 425.5,239.5 Z"/></g>
<g><path style="opacity:1" fill="#397467" d="M 178.5,247.5 C 178.027,248.906 177.027,249.573 175.5,249.5C 175.973,248.094 176.973,247.427 178.5,247.5 Z"/></g>
<g><path style="opacity:1" fill="#336b5e" d="M 175.5,249.5 C 172.5,253.167 169.167,256.5 165.5,259.5C 167.833,255.167 171.167,251.833 175.5,249.5 Z"/></g>
<g><path style="opacity:1" fill="#15b77a" d="M 16.5,250.5 C 16.8333,250.5 17.1667,250.5 17.5,250.5C 17.298,252.95 17.6314,255.283 18.5,257.5C 18.5,258.5 18.5,259.5 18.5,260.5C 17.7784,260.082 17.2784,259.416 17,258.5C 16.5026,255.854 16.3359,253.187 16.5,250.5 Z"/></g>
<g><path style="opacity:1" fill="#1ac1ac" d="M 254.5,239.5 C 255.498,272.996 255.832,306.663 255.5,340.5C 259.833,340.5 264.167,340.5 268.5,340.5C 275.833,340.5 283.167,340.5 290.5,340.5C 290.5,338.833 290.5,337.167 290.5,335.5C 290.833,335.5 291.167,335.5 291.5,335.5C 291.802,338.059 291.468,340.393 290.5,342.5C 278.5,342.5 266.5,342.5 254.5,342.5C 254.5,308.833 254.5,275.167 254.5,241.5C 254.5,240.833 254.5,240.167 254.5,239.5 Z"/></g>
<g><path style="opacity:1" fill="#2e7967" d="M 165.5,259.5 C 165.204,261.403 164.537,263.07 163.5,264.5C 163.12,262.302 163.787,260.635 165.5,259.5 Z"/></g>
<g><path style="opacity:1" fill="#1eacb1" d="M 423.5,254.5 C 423.664,257.187 423.497,259.854 423,262.5C 422.722,263.416 422.222,264.082 421.5,264.5C 421.753,260.96 422.419,257.627 423.5,254.5 Z"/></g>
<g><path style="opacity:1" fill="#1e9769" d="M 18.5,261.5 C 19.9238,263.515 20.5905,265.848 20.5,268.5C 18.8372,266.562 18.1706,264.228 18.5,261.5 Z"/></g>
<g><path style="opacity:1" fill="#2c5444" d="M 18.5,257.5 C 19.1174,257.611 19.6174,257.944 20,258.5C 21.2771,265.163 22.4438,271.83 23.5,278.5C 23.1667,278.5 22.8333,278.5 22.5,278.5C 22.5905,275.848 21.9238,273.515 20.5,271.5C 20.5,270.5 20.5,269.5 20.5,268.5C 20.5905,265.848 19.9238,263.515 18.5,261.5C 18.5,261.167 18.5,260.833 18.5,260.5C 18.5,259.5 18.5,258.5 18.5,257.5 Z"/></g>
<g><path style="opacity:1" fill="#22abb0" d="M 421.5,266.5 C 421.59,269.152 420.924,271.485 419.5,273.5C 419.5,272.833 419.5,272.167 419.5,271.5C 419.796,269.597 420.463,267.93 421.5,266.5 Z"/></g>
<g><path style="opacity:1" fill="#1da786" d="M 162.5,264.5 C 161.518,290.122 161.185,315.789 161.5,341.5C 161.5,342.167 161.167,342.5 160.5,342.5C 148.655,342.828 136.988,342.495 125.5,341.5C 137.167,341.5 148.833,341.5 160.5,341.5C 160.333,316.164 160.5,290.831 161,265.5C 161.383,264.944 161.883,264.611 162.5,264.5 Z"/></g>
<g><path style="opacity:1" fill="#2c544b" d="M 162.5,264.5 C 162.833,264.5 163.167,264.5 163.5,264.5C 162.87,290.313 162.203,315.98 161.5,341.5C 161.185,315.789 161.518,290.122 162.5,264.5 Z"/></g>
<g><path style="opacity:1" fill="#17be80" d="M 20.5,271.5 C 21.9238,273.515 22.5905,275.848 22.5,278.5C 21.0762,276.485 20.4095,274.152 20.5,271.5 Z"/></g>
<g><path style="opacity:1" fill="#2d5455" d="M 419.5,271.5 C 419.5,272.167 419.5,272.833 419.5,273.5C 418.542,277.379 417.209,281.045 415.5,284.5C 415.654,279.711 416.987,275.378 419.5,271.5 Z"/></g>
<g><path style="opacity:1" fill="#2a5f4a" d="M 23.5,279.5 C 25.554,282.008 26.554,285.008 26.5,288.5C 25.0541,285.746 24.0541,282.746 23.5,279.5 Z"/></g>
<g><path style="opacity:1" fill="#249093" d="M 415.5,285.5 C 415.5,286.833 415.5,288.167 415.5,289.5C 414.857,291.076 413.857,292.41 412.5,293.5C 413.129,290.603 414.129,287.936 415.5,285.5 Z"/></g>
<g><path style="opacity:0.991" fill="#02dfe3" d="M 415.5,289.5 C 416.494,298.652 416.827,307.985 416.5,317.5C 411.031,329.104 404.531,340.104 397,350.5C 392.934,356.023 388.434,361.023 383.5,365.5C 383.666,359.824 383.499,354.157 383,348.5C 382.148,349.571 381.315,350.571 380.5,351.5C 380.5,350.833 380.5,350.167 380.5,349.5C 380.833,348.5 381.5,347.833 382.5,347.5C 383.906,347.027 384.573,346.027 384.5,344.5C 386.262,343.738 387.262,342.404 387.5,340.5C 388.906,340.027 389.573,339.027 389.5,337.5C 390.906,337.027 391.573,336.027 391.5,334.5C 393.262,333.738 394.262,332.404 394.5,330.5C 397.451,329.191 398.784,326.857 398.5,323.5C 401.138,321.582 402.805,318.915 403.5,315.5C 404.5,312.833 405.5,310.167 406.5,307.5C 407.906,307.027 408.573,306.027 408.5,304.5C 410.834,302.824 411.834,300.491 411.5,297.5C 411.833,296.167 412.167,294.833 412.5,293.5C 413.857,292.41 414.857,291.076 415.5,289.5 Z"/></g>
<g><path style="opacity:1" fill="#2a5c49" d="M 26.5,288.5 C 28.2132,289.635 28.8799,291.302 28.5,293.5C 27.8333,292.5 27.1667,291.5 26.5,290.5C 26.5,289.833 26.5,289.167 26.5,288.5 Z"/></g>
<g><path style="opacity:1" fill="#2bb6a7" d="M 291.5,239.5 C 291.5,239.833 291.5,240.167 291.5,240.5C 291.5,272.167 291.5,303.833 291.5,335.5C 291.167,335.5 290.833,335.5 290.5,335.5C 289.336,304.003 289.169,272.336 290,240.5C 290.383,239.944 290.883,239.611 291.5,239.5 Z"/></g>
<g><path style="opacity:1" fill="#1cb47c" d="M 26.5,290.5 C 27.1667,291.5 27.8333,292.5 28.5,293.5C 29.2341,294.708 29.5674,296.041 29.5,297.5C 27.1824,295.815 26.1824,293.481 26.5,290.5 Z"/></g>
<g><path style="opacity:1" fill="#1ead79" d="M 29.5,297.5 C 31.0652,299.509 32.0652,301.843 32.5,304.5C 30.1663,302.824 29.1663,300.491 29.5,297.5 Z"/></g>
<g><path style="opacity:1" fill="#20b1b5" d="M 411.5,297.5 C 411.834,300.491 410.834,302.824 408.5,304.5C 408.935,301.843 409.935,299.509 411.5,297.5 Z"/></g>
<g><path style="opacity:1" fill="#2d787a" d="M 408.5,304.5 C 408.573,306.027 407.906,307.027 406.5,307.5C 406.427,305.973 407.094,304.973 408.5,304.5 Z"/></g>
<g><path style="opacity:0.99" fill="#04e498" d="M 36.5,313.5 C 38.83,317.492 41.1633,321.492 43.5,325.5C 43.427,327.027 44.0937,328.027 45.5,328.5C 48.1589,332.828 50.8256,337.162 53.5,341.5C 54.0798,343.749 55.4131,345.415 57.5,346.5C 59.6326,348.091 61.2993,350.091 62.5,352.5C 63.0798,354.749 64.4131,356.415 66.5,357.5C 66.6282,359.09 67.2949,360.423 68.5,361.5C 69.8166,367.654 69.8166,373.654 68.5,379.5C 55.9835,368.323 45.3168,355.656 36.5,341.5C 36.5,332.167 36.5,322.833 36.5,313.5 Z"/></g>
<g><path style="opacity:1" fill="#26a3a5" d="M 403.5,315.5 C 402.805,318.915 401.138,321.582 398.5,323.5C 399.195,320.085 400.862,317.418 403.5,315.5 Z"/></g>
<g><path style="opacity:1" fill="#268c68" d="M 43.5,325.5 C 44.9063,325.973 45.573,326.973 45.5,328.5C 44.0937,328.027 43.427,327.027 43.5,325.5 Z"/></g>
<g><path style="opacity:1" fill="#24acad" d="M 398.5,323.5 C 398.784,326.857 397.451,329.191 394.5,330.5C 395.079,327.669 396.412,325.336 398.5,323.5 Z"/></g>
<g><path style="opacity:1" fill="#298e8f" d="M 394.5,330.5 C 394.262,332.404 393.262,333.738 391.5,334.5C 391.738,332.596 392.738,331.262 394.5,330.5 Z"/></g>
<g><path style="opacity:1" fill="#288283" d="M 391.5,334.5 C 391.573,336.027 390.906,337.027 389.5,337.5C 389.427,335.973 390.094,334.973 391.5,334.5 Z"/></g>
<g><path style="opacity:1" fill="#278b8b" d="M 389.5,337.5 C 389.573,339.027 388.906,340.027 387.5,340.5C 387.427,338.973 388.094,337.973 389.5,337.5 Z"/></g>
<g><path style="opacity:1" fill="#2c4f46" d="M 124.5,341.5 C 124.833,341.5 125.167,341.5 125.5,341.5C 136.988,342.495 148.655,342.828 160.5,342.5C 154.676,343.166 148.676,343.5 142.5,343.5C 136.128,343.496 130.128,342.829 124.5,341.5 Z"/></g>
<g><path style="opacity:1" fill="#2b544e" d="M 253.5,241.5 C 253.833,241.5 254.167,241.5 254.5,241.5C 254.5,275.167 254.5,308.833 254.5,342.5C 266.5,342.5 278.5,342.5 290.5,342.5C 278.345,343.495 266.011,343.829 253.5,343.5C 253.5,309.833 253.5,276.167 253.5,242.5C 253.5,242.167 253.5,241.833 253.5,241.5 Z"/></g>
<g><path style="opacity:1" fill="#288d8d" d="M 387.5,340.5 C 387.262,342.404 386.262,343.738 384.5,344.5C 384.738,342.596 385.738,341.262 387.5,340.5 Z"/></g>
<g><path style="opacity:1" fill="#25aa7c" d="M 53.5,341.5 C 55.5869,342.585 56.9202,344.251 57.5,346.5C 55.4131,345.415 54.0798,343.749 53.5,341.5 Z"/></g>
<g><path style="opacity:1" fill="#269d9c" d="M 384.5,344.5 C 384.573,346.027 383.906,347.027 382.5,347.5C 382.427,345.973 383.094,344.973 384.5,344.5 Z"/></g>
<g><path style="opacity:0.988" fill="#01e1dd" d="M 383.5,365.5 C 375.815,375.518 366.815,384.185 356.5,391.5C 356.5,386.5 356.5,381.5 356.5,376.5C 360.167,372.5 363.833,368.5 367.5,364.5C 368.167,363.167 369.167,362.167 370.5,361.5C 373.243,359.761 375.243,357.427 376.5,354.5C 377.833,353.5 379.167,352.5 380.5,351.5C 381.315,350.571 382.148,349.571 383,348.5C 383.499,354.157 383.666,359.824 383.5,365.5 Z"/></g>
<g><path style="opacity:1" fill="#288d8c" d="M 380.5,349.5 C 380.5,350.167 380.5,350.833 380.5,351.5C 379.167,352.5 377.833,353.5 376.5,354.5C 377.08,352.251 378.413,350.585 380.5,349.5 Z"/></g>
<g><path style="opacity:1" fill="#27ac80" d="M 62.5,352.5 C 64.5869,353.585 65.9202,355.251 66.5,357.5C 64.4131,356.415 63.0798,354.749 62.5,352.5 Z"/></g>
<g><path style="opacity:1" fill="#23a2a0" d="M 376.5,354.5 C 375.243,357.427 373.243,359.761 370.5,361.5C 371.757,358.573 373.757,356.239 376.5,354.5 Z"/></g>
<g><path style="opacity:0.99" fill="#05e39e" d="M 66.5,357.5 C 70.5,361.167 74.5,364.833 78.5,368.5C 80.5691,371.573 83.2358,373.906 86.5,375.5C 87.5,377.167 88.8333,378.5 90.5,379.5C 91.2623,381.262 92.5956,382.262 94.5,382.5C 95.1667,383.5 95.8333,384.5 96.5,385.5C 96.5,390.833 96.5,396.167 96.5,401.5C 92.388,399.272 88.388,396.772 84.5,394C 78.9714,389.301 73.638,384.468 68.5,379.5C 69.8166,373.654 69.8166,367.654 68.5,361.5C 67.2949,360.423 66.6282,359.09 66.5,357.5 Z"/></g>
<g><path style="opacity:1" fill="#2f5649" d="M 78.5,368.5 C 81.7642,370.094 84.4309,372.427 86.5,375.5C 83.2358,373.906 80.5691,371.573 78.5,368.5 Z"/></g>
<g><path style="opacity:1" fill="#28a39f" d="M 367.5,364.5 C 363.833,368.5 360.167,372.5 356.5,376.5C 355.609,377.11 354.609,377.443 353.5,377.5C 357.559,372.438 362.226,368.105 367.5,364.5 Z"/></g>
<g><path style="opacity:0.989" fill="#04e0d6" d="M 356.5,376.5 C 356.5,381.5 356.5,386.5 356.5,391.5C 347.867,398.82 338.534,405.153 328.5,410.5C 329.097,405.706 328.43,401.373 326.5,397.5C 327.694,396.728 328.694,395.728 329.5,394.5C 329.842,393.662 330.508,393.328 331.5,393.5C 333.027,393.573 334.027,392.906 334.5,391.5C 336.147,389.674 338.147,388.34 340.5,387.5C 342.404,387.262 343.738,386.262 344.5,384.5C 348.051,382.889 351.051,380.556 353.5,377.5C 354.609,377.443 355.609,377.11 356.5,376.5 Z"/></g>
<g><path style="opacity:1" fill="#2e6b58" d="M 90.5,379.5 C 92.4044,379.738 93.7377,380.738 94.5,382.5C 92.5956,382.262 91.2623,381.262 90.5,379.5 Z"/></g>
<g><path style="opacity:1" fill="#289591" d="M 353.5,377.5 C 351.051,380.556 348.051,382.889 344.5,384.5C 346.949,381.444 349.949,379.111 353.5,377.5 Z"/></g>
<g><path style="opacity:1" fill="#2f6353" d="M 94.5,382.5 C 96.4044,382.738 97.7377,383.738 98.5,385.5C 97.8333,385.5 97.1667,385.5 96.5,385.5C 95.8333,384.5 95.1667,383.5 94.5,382.5 Z"/></g>
<g><path style="opacity:1" fill="#299e98" d="M 344.5,384.5 C 343.738,386.262 342.404,387.262 340.5,387.5C 341.262,385.738 342.596,384.738 344.5,384.5 Z"/></g>
<g><path style="opacity:0.992" fill="#04e4a4" d="M 96.5,385.5 C 97.1667,385.5 97.8333,385.5 98.5,385.5C 100.55,387.547 102.883,389.214 105.5,390.5C 105.973,391.906 106.973,392.573 108.5,392.5C 108.973,393.906 109.973,394.573 111.5,394.5C 111.973,395.906 112.973,396.573 114.5,396.5C 117.304,398.405 120.304,400.071 123.5,401.5C 124.702,406.977 124.702,412.311 123.5,417.5C 113.667,413.423 104.667,408.089 96.5,401.5C 96.5,396.167 96.5,390.833 96.5,385.5 Z"/></g>
<g><path style="opacity:1" fill="#2e6c59" d="M 105.5,390.5 C 107.027,390.427 108.027,391.094 108.5,392.5C 106.973,392.573 105.973,391.906 105.5,390.5 Z"/></g>
<g><path style="opacity:1" fill="#289690" d="M 334.5,391.5 C 334.027,392.906 333.027,393.573 331.5,393.5C 331.973,392.094 332.973,391.427 334.5,391.5 Z"/></g>
<g><path style="opacity:1" fill="#2e6e5b" d="M 108.5,392.5 C 110.027,392.427 111.027,393.094 111.5,394.5C 109.973,394.573 108.973,393.906 108.5,392.5 Z"/></g>
<g><path style="opacity:1" fill="#2b7762" d="M 111.5,394.5 C 113.027,394.427 114.027,395.094 114.5,396.5C 112.973,396.573 111.973,395.906 111.5,394.5 Z"/></g>
<g><path style="opacity:1" fill="#2b7571" d="M 329.5,394.5 C 328.694,395.728 327.694,396.728 326.5,397.5C 325.833,397.5 325.167,397.5 324.5,397.5C 325.659,395.75 327.326,394.75 329.5,394.5 Z"/></g>
<g><path style="opacity:0.994" fill="#02e1d0" d="M 324.5,397.5 C 325.167,397.5 325.833,397.5 326.5,397.5C 328.43,401.373 329.097,405.706 328.5,410.5C 319.679,416.112 310.345,420.779 300.5,424.5C 300.5,420.167 300.5,415.833 300.5,411.5C 299.167,411.5 297.833,411.5 296.5,411.5C 296.842,410.662 297.508,410.328 298.5,410.5C 300.403,410.204 302.07,409.537 303.5,408.5C 306.491,408.834 308.824,407.834 310.5,405.5C 314.502,405.471 317.502,403.805 319.5,400.5C 321.848,400.408 323.514,399.408 324.5,397.5 Z"/></g>
<g><path style="opacity:1" fill="#29958d" d="M 324.5,397.5 C 323.514,399.408 321.848,400.408 319.5,400.5C 320.659,398.75 322.326,397.75 324.5,397.5 Z"/></g>
<g><path style="opacity:0.986" fill="#04e2aa" d="M 123.5,401.5 C 127.043,403.438 130.71,405.105 134.5,406.5C 134.973,407.906 135.973,408.573 137.5,408.5C 138.93,409.537 140.597,410.204 142.5,410.5C 142.833,410.5 143.167,410.5 143.5,410.5C 146.079,412.025 148.746,413.359 151.5,414.5C 151.918,415.222 152.584,415.722 153.5,416C 152.533,420.401 152.2,424.901 152.5,429.5C 142.397,426.273 132.73,422.273 123.5,417.5C 124.702,412.311 124.702,406.977 123.5,401.5 Z"/></g>
<g><path style="opacity:1" fill="#1cc1b4" d="M 319.5,400.5 C 317.502,403.805 314.502,405.471 310.5,405.5C 313.24,403.44 316.24,401.774 319.5,400.5 Z"/></g>
<g><path style="opacity:1" fill="#297964" d="M 134.5,406.5 C 136.027,406.427 137.027,407.094 137.5,408.5C 135.973,408.573 134.973,407.906 134.5,406.5 Z"/></g>
<g><path style="opacity:1" fill="#1fb2a5" d="M 310.5,405.5 C 308.824,407.834 306.491,408.834 303.5,408.5C 305.185,406.182 307.519,405.182 310.5,405.5 Z"/></g>
<g><path style="opacity:1" fill="#296d5b" d="M 137.5,408.5 C 139.698,408.12 141.365,408.787 142.5,410.5C 140.597,410.204 138.93,409.537 137.5,408.5 Z"/></g>
<g><path style="opacity:1" fill="#26847c" d="M 303.5,408.5 C 302.07,409.537 300.403,410.204 298.5,410.5C 299.635,408.787 301.302,408.12 303.5,408.5 Z"/></g>
<g><path style="opacity:1" fill="#2c6657" d="M 143.5,410.5 C 151.262,412.196 158.595,414.863 165.5,418.5C 160.849,417.178 156.182,415.845 151.5,414.5C 148.746,413.359 146.079,412.025 143.5,410.5 Z"/></g>
<g><path style="opacity:0.985" fill="#03e0c8" d="M 296.5,411.5 C 297.833,411.5 299.167,411.5 300.5,411.5C 300.5,415.833 300.5,420.167 300.5,424.5C 290.461,428.513 280.128,431.513 269.5,433.5C 268.517,429.702 268.183,425.702 268.5,421.5C 265.833,421.5 263.167,421.5 260.5,421.5C 262.265,420.539 264.265,420.205 266.5,420.5C 271.931,420.328 276.931,418.995 281.5,416.5C 284.716,416.655 287.383,415.655 289.5,413.5C 291.833,412.833 294.167,412.167 296.5,411.5 Z"/></g>
<g><path style="opacity:1" fill="#20a294" d="M 289.5,413.5 C 287.383,415.655 284.716,416.655 281.5,416.5C 283.936,415.129 286.603,414.129 289.5,413.5 Z"/></g>
<g><path style="opacity:0.991" fill="#04e1af" d="M 151.5,414.5 C 156.182,415.845 160.849,417.178 165.5,418.5C 170.349,419.216 175.015,420.216 179.5,421.5C 181.167,422.167 182.833,422.833 184.5,423.5C 184.5,427.833 184.5,432.167 184.5,436.5C 173.603,435.187 162.937,432.854 152.5,429.5C 152.2,424.901 152.533,420.401 153.5,416C 152.584,415.722 151.918,415.222 151.5,414.5 Z"/></g>
<g><path style="opacity:1" fill="#249083" d="M 281.5,416.5 C 276.931,418.995 271.931,420.328 266.5,420.5C 271.289,418.803 276.289,417.469 281.5,416.5 Z"/></g>
<g><path style="opacity:1" fill="#286e5f" d="M 179.5,421.5 C 186.422,421.656 193.089,422.656 199.5,424.5C 198.833,424.5 198.167,424.5 197.5,424.5C 193.176,424.073 188.842,423.739 184.5,423.5C 182.833,422.833 181.167,422.167 179.5,421.5 Z"/></g>
<g><path style="opacity:0.99" fill="#04e0c1" d="M 260.5,421.5 C 263.167,421.5 265.833,421.5 268.5,421.5C 268.183,425.702 268.517,429.702 269.5,433.5C 260.135,436.175 250.468,437.842 240.5,438.5C 240.5,434.5 240.5,430.5 240.5,426.5C 234.167,426.5 227.833,426.5 221.5,426.5C 214.492,426.666 207.492,426.5 200.5,426C 199.263,425.768 198.263,425.268 197.5,424.5C 198.167,424.5 198.833,424.5 199.5,424.5C 212.455,425.629 225.455,425.796 238.5,425C 246.076,424.474 253.41,423.308 260.5,421.5 Z"/></g>
<g><path style="opacity:0.991" fill="#00e3b8" d="M 184.5,423.5 C 188.842,423.739 193.176,424.073 197.5,424.5C 198.263,425.268 199.263,425.768 200.5,426C 207.492,426.5 214.492,426.666 221.5,426.5C 218.713,427.477 215.713,427.81 212.5,427.5C 212.5,431.5 212.5,435.5 212.5,439.5C 209.167,439.5 205.833,439.5 202.5,439.5C 196.561,438.741 190.561,437.741 184.5,436.5C 184.5,432.167 184.5,427.833 184.5,423.5 Z"/></g>
<g><path style="opacity:0.995" fill="#00e3be" d="M 221.5,426.5 C 227.833,426.5 234.167,426.5 240.5,426.5C 240.5,430.5 240.5,434.5 240.5,438.5C 238.901,438.232 237.568,438.566 236.5,439.5C 228.5,439.5 220.5,439.5 212.5,439.5C 212.5,435.5 212.5,431.5 212.5,427.5C 215.713,427.81 218.713,427.477 221.5,426.5 Z"/></g>
</svg>
